<?xml version="1.0" encoding="UTF-8" standalone="no"?>
<svg
   xmlns:osb="http://www.openswatchbook.org/uri/2009/osb"
   xmlns:dc="http://purl.org/dc/elements/1.1/"
   xmlns:cc="http://creativecommons.org/ns#"
   xmlns:rdf="http://www.w3.org/1999/02/22-rdf-syntax-ns#"
   xmlns:svg="http://www.w3.org/2000/svg"
   xmlns="http://www.w3.org/2000/svg"
   id="svg2"
   version="1.1"
   width="150"
   height="215.4205"
   viewBox="0 0 150 215.4205">
  <metadata
     id="metadata8">
    <rdf:RDF>
      <cc:Work
         rdf:about="">
        <dc:format>image/svg+xml</dc:format>
        <dc:type
           rdf:resource="http://purl.org/dc/dcmitype/StillImage" />
        <dc:title></dc:title>
      </cc:Work>
    </rdf:RDF>
  </metadata>
  <defs
     id="defs6">
    <linearGradient
       id="linearGradient5629"
       osb:paint="solid">
      <stop
         style="stop-color:#000000;stop-opacity:1;"
         offset="0"
         id="stop5631" />
    </linearGradient>
    <linearGradient
       id="linearGradient5621"
       osb:paint="solid">
      <stop
         style="stop-color:#000000;stop-opacity:1;"
         offset="0"
         id="stop5623" />
    </linearGradient>
    <linearGradient
       id="linearGradient5615"
       osb:paint="solid">
      <stop
         style="stop-color:#000000;stop-opacity:1;"
         offset="0"
         id="stop5617" />
    </linearGradient>
    <linearGradient
       id="linearGradient4141"
       osb:paint="solid">
      <stop
         style="stop-color:#000000;stop-opacity:1;"
         offset="0"
         id="stop4143" />
    </linearGradient>
  </defs>
  <g
     id="layer10"
     style="display:inline"
     transform="translate(-108.70827,-10.540841)">
    <path
       style="fill:#b08f6d;fill-opacity:1;fill-rule:evenodd;stroke:#000000;stroke-width:0;stroke-linecap:butt;stroke-linejoin:miter;stroke-miterlimit:4;stroke-dasharray:none;stroke-opacity:1"
       d="m 149.88926,74.766616 c 0,0 -4.50974,0.712063 -3.32296,4.035024 1.18677,3.322961 3.79767,7.595339 3.79767,7.595339 l 1.18677,-4.272378 7.59534,-7.120631 5.45915,-2.610897 -5.93386,-2.373544 -5.2218,-4.747087 -0.71206,-2.610898 0.23735,-6.171212 2.37355,-9.25682 -6.40857,-3.560315 -0.47471,4.272378 0.47471,4.984441 -0.23736,2.610898 -5.6965,1.661481 0.71206,2.610897 3.79767,0.712063 0.71207,2.610898 -0.47471,1.186772 -1.18677,0.712063 0,2.136189 1.66148,2.136189 -0.23736,1.186772 -1.42412,0.474708 0,0.949418 1.42412,0.237354 z"
       id="path5710" />
    <path
       style="fill:none;fill-rule:evenodd;stroke:#000000;stroke-width:1px;stroke-linecap:butt;stroke-linejoin:miter;stroke-opacity:1"
       d="m 144.07409,60.288003 3.79767,2.136189 0.23735,-1.898835 z"
       id="path5727" />
    <path
       style="fill:#1d1d17;fill-opacity:1;fill-rule:evenodd;stroke:#000000;stroke-width:0;stroke-linecap:butt;stroke-linejoin:miter;stroke-miterlimit:4;stroke-dasharray:none;stroke-opacity:1"
       d="m 181.81343,68.595405 2.84825,-2.848252 10.20624,-2.136189 0.23735,4.984441 -5.6965,1.66148 z"
       id="path5729" />
    <path
       style="fill:#140c02;fill-opacity:1;fill-rule:evenodd;stroke:#000000;stroke-width:0;stroke-linecap:butt;stroke-linejoin:miter;stroke-miterlimit:4;stroke-dasharray:none;stroke-opacity:1"
       d="m 148.10911,46.046742 7.12063,1.186772 -0.23735,2.610898 z"
       id="path5731" />
    <path
       style="fill:#140c02;fill-opacity:1;fill-rule:evenodd;stroke:#000000;stroke-width:0;stroke-linecap:butt;stroke-linejoin:miter;stroke-miterlimit:4;stroke-dasharray:none;stroke-opacity:1"
       d="m 146.44763,66.459216 3.32296,3.085606 -0.47471,0.712063 -2.84825,-2.610897 z"
       id="path5733" />
    <path
       style="fill:#000000;fill-opacity:1;fill-rule:evenodd;stroke:#000000;stroke-width:0;stroke-linecap:butt;stroke-linejoin:miter;stroke-miterlimit:4;stroke-dasharray:none;stroke-opacity:1"
       d="m 147.15969,72.867783 3.79767,2.610898 0.94942,-0.949417 -3.08561,-3.560316 z"
       id="path5735" />
    <path
       style="fill:#1d1d17;fill-opacity:1;fill-rule:evenodd;stroke:#000000;stroke-width:0;stroke-linecap:butt;stroke-linejoin:miter;stroke-miterlimit:4;stroke-dasharray:none;stroke-opacity:1"
       d="m 151.90678,66.933925 9.49417,4.747087 2.84826,0.474708 5.6965,0.474709 -8.07005,2.373543 -9.01946,-4.272378 -2.84826,-3.797669 z"
       id="path5737" />
    <path
       style="fill:#28220b;fill-opacity:1;fill-rule:evenodd;stroke:#000000;stroke-width:0;stroke-linecap:butt;stroke-linejoin:miter;stroke-miterlimit:4;stroke-dasharray:none;stroke-opacity:1"
       d="m 150.00794,85.922272 -4.74708,-10.443591 4.74708,-1.424126 -1.42412,-1.898835 5.22179,-2.848252 8.07005,4.747087 -8.07005,3.322961 z"
       id="path5767" />
  </g>
  <g
     id="layer1"
     style="display:inline"
     transform="translate(-108.70827,-10.540841)">
    <path
       style="fill:none;fill-opacity:1;fill-rule:nonzero;stroke:#000000;stroke-width:0;stroke-linecap:butt;stroke-linejoin:miter;stroke-miterlimit:4;stroke-dasharray:none;stroke-opacity:1"
       d="m 118.20246,218.8407 3.79767,-12.34242 1.42413,-3.79767 0,-3.79767 -0.94942,-4.27238 0.47471,-0.47471 -1.42413,-5.22179 -1.42412,-1.89884 0.94942,-2.84825 0.94941,-0.94942 0.94942,-13.29184 5.6965,-15.19068 3.32296,-4.27238 3.32297,-8.54475 -2.84826,-4.74709 1.42413,-5.6965 5.2218,-1.89884 0.94941,-2.37354 -2.84825,-6.17122 0.47471,-5.6965 2.84825,-2.37354 8.07005,-19.937768 3.32296,-5.221795 1.42413,-4.747087 3.79767,-7.12063 9.49417,-4.272378 13.29184,-0.949418 18.03893,-0.474708 1.89884,-1.424127 16.14009,5.221796 7.59534,8.544756 1.42413,13.766552 -3.79767,30.856067 -8.54476,22.31131 -8.07005,9.49417 -2.84825,0.94942 -3.32296,11.39301 -3.32296,7.59533 -5.6965,8.07005 -2.84826,2.37355 -4.27237,14.71597 1.89883,6.64592 -4.27238,5.6965 -29.90665,-3.32296 -28.48252,-1.42413 z"
       id="path4139" />
    <path
       style="fill:#24273b;fill-opacity:1;fill-rule:evenodd;stroke:#000000;stroke-width:0;stroke-linecap:butt;stroke-linejoin:miter;stroke-miterlimit:4;stroke-dasharray:none;stroke-opacity:1"
       d="m 124.84838,202.2259 c 0,0 -2.84825,-26.58369 7.12063,-47.47087 9.96889,-20.88718 1.89884,-33.22961 1.89884,-33.22961 0,0 -0.47471,-4.27237 3.79767,-7.12063 4.27238,-2.84825 11.86772,-23.735431 12.81713,-27.5331 0.94942,-3.79767 3.32296,-7.595339 7.12063,-10.443592 3.79767,-2.848252 16.1401,-6.645921 22.78602,-6.645921 6.64592,0 12.34243,5.696504 17.08951,1.898835 4.74709,-3.79767 6.17122,-1.424126 12.34243,0 6.17121,1.424126 14.71597,12.817134 14.71597,12.817134 0,0 -0.47471,5.696504 -0.47471,11.393009 0,5.696505 0,15.665385 -0.47471,21.361895 -0.47471,5.6965 0.47471,10.44359 -1.89883,11.393 -2.37355,0.94942 -6.17122,7.59534 -6.64592,10.9183 -0.47471,3.32296 -2.84826,15.19068 -2.84826,15.19068 0,0 -7.12063,1.89884 -9.01946,4.27238 -1.89884,2.37354 -4.27238,7.59534 -4.74709,9.96888 -0.47471,2.37355 -4.27238,9.01947 -4.27238,9.01947 0,0 0,7.12063 -2.84825,8.07005 -2.84825,0.94941 -4.74709,6.17121 -4.74709,6.17121 0,0 -0.4747,6.64592 -1.89883,8.54475 -1.42413,1.89884 -0.94942,15.19068 -0.94942,15.19068 l -28.00781,-2.84825 -33.70432,1.89883 2.84825,-14.71596 z"
       id="path5635" />
  </g>
  <g
     id="layer13"
     transform="translate(-108.70827,-10.540841)">
    <path
       style="fill:#c98941;fill-opacity:1;fill-rule:evenodd;stroke:#000000;stroke-width:0;stroke-linecap:butt;stroke-linejoin:miter;stroke-miterlimit:4;stroke-dasharray:none;stroke-opacity:1"
       d="m 151.90678,96.467029 4.27238,-0.474709 2.84825,-10.9183 c 0,0 10.9183,-4.747087 16.1401,-4.272378 5.22179,0.474709 23.73543,7.595339 23.73543,7.595339 l 7.59534,9.494174 0.94942,10.918295 6.64592,3.79767 -3.32296,-8.54475 1.42412,-6.645924 c 0,0 -15.19068,-20.412474 -28.48252,-19.463056 -13.29184,0.949417 -29.43194,7.12063 -29.43194,7.12063 l -1.42412,2.848252 z"
       id="path5760" />
    <path
       style="fill:#c98941;fill-opacity:1;fill-rule:evenodd;stroke:#000000;stroke-width:0;stroke-linecap:butt;stroke-linejoin:miter;stroke-miterlimit:4;stroke-dasharray:none;stroke-opacity:1"
       d="m 161.87566,74.529264 c 0,0 12.81714,-4.272378 21.8366,-2.373544 9.01947,1.898835 23.26073,9.494174 28.48252,14.71597 5.2218,5.221795 -9.96888,-5.221796 -9.96888,-5.221796 0,0 -34.17902,-7.12063 -42.72378,-1.898835 -8.54476,5.221796 -3.79767,1.424126 -3.79767,1.424126 l -0.94942,-2.848252"
       id="path5762" />
  </g>
  <g
     id="layer12"
     transform="translate(-108.70827,-10.540841)">
    <path
       style="fill:#020308;fill-opacity:1;fill-rule:evenodd;stroke:#000000;stroke-width:0;stroke-linecap:butt;stroke-linejoin:miter;stroke-miterlimit:4;stroke-dasharray:none;stroke-opacity:1"
       d="m 137.19081,137.19081 12.34243,-0.47471 9.01946,5.2218 3.32296,-14.24126 -3.32296,-3.79767 3.79767,-5.2218 1.89884,-4.27238 33.70431,16.61481 -6.17121,32.7549 -31.80548,41.29965 -0.47471,2.84825 13.29184,-10.9183 9.96888,1.42413 -5.22179,-1.89883 0.47471,-3.32296 9.01946,-0.94942 -0.47471,-2.37355 -7.59534,-0.4747 10.9183,-3.32296 -3.32296,-1.42413 1.42413,-2.84825 -4.74709,-3.79767 4.27238,-1.42413 5.2218,0.94942 7.12063,-9.96888 0.94941,-11.86772 7.59534,-15.66539 6.17122,-28.00781 -9.49418,-2.37354 3.32296,-11.867721 -8.07004,-2.373543 -15.19068,-3.322961 -0.94942,5.221796 6.17121,3.322959 0.47471,7.12063 -7.12063,1.89884 -9.01946,-5.2218 2.84825,7.59534 1.42412,4.74709 -12.81713,-4.27238 -12.34243,-2.37354 0.47471,3.32296 0.94942,3.79767 -9.49417,-0.47471 -4.27238,1.89883 -1.42413,9.49418 3.79767,2.37354 -5.22179,3.32296 z"
       id="path5755" />
    <path
       style="fill:#020308;fill-opacity:1;fill-rule:evenodd;stroke:#000000;stroke-width:1px;stroke-linecap:butt;stroke-linejoin:miter;stroke-opacity:1"
       d="m 127.22193,208.87182 -1.89883,-9.49417 -0.47471,-7.59534 20.88718,1.42413 3.79767,-6.17122 -21.36189,-5.6965 22.78602,2.37354 -1.89884,3.79767 -19.93776,21.8366 -1.89884,-2.84825 0.47471,-1.89884"
       id="path5757" />
  </g>
  <g
     id="layer14"
     transform="translate(-108.70827,-10.540841)">
    <path
       style="fill:#673310;fill-opacity:1;fill-rule:evenodd;stroke:#000000;stroke-width:0;stroke-linecap:butt;stroke-linejoin:miter;stroke-miterlimit:4;stroke-dasharray:none;stroke-opacity:1"
       d="m 185.6111,200.32707 6.64592,23.73543 -53.64208,-0.57891 7.12063,-15.63065 z"
       id="path5765" />
  </g>
  <g
     id="layer2"
     style="display:inline"
     transform="translate(-108.70827,-10.540841)">
    <path
       style="fill:#91704f;fill-opacity:1;fill-rule:evenodd;stroke:#000000;stroke-width:0;stroke-linecap:butt;stroke-linejoin:miter;stroke-miterlimit:4;stroke-dasharray:none;stroke-opacity:1"
       d="m 108.70829,223.58779 11.39301,-5.22179 7.12063,-9.96889 11.39301,-13.29184 1.42412,0 c 0,0 16.1401,-26.58369 19.46306,-28.95723 3.32296,-2.37354 -3.79767,-16.1401 0.47471,-27.05839 4.27238,-10.9183 2.37354,-18.03894 3.32296,-22.31131 0.94942,-4.27238 33.70431,13.76655 33.70431,13.76655 0,0 -4.74708,28.48252 -6.64592,32.28019 -1.89883,3.79767 -9.01946,12.34243 -9.96888,15.66539 -0.94942,3.32296 -26.58369,31.80548 -26.58369,31.80548 l -15.66538,9.96888 0,5.6965 z"
       id="path5638" />
  </g>
  <g
     id="layer7"
     style="display:inline"
     transform="translate(-108.70827,-10.540841)" />
  <g
     id="layer6"
     style="display:inline"
     transform="translate(-108.70827,-10.540841)">
    <path
       style="display:inline;fill:#b25a00;fill-opacity:1;fill-rule:evenodd;stroke:#000000;stroke-width:0;stroke-linecap:butt;stroke-linejoin:miter;stroke-miterlimit:4;stroke-dasharray:none;stroke-opacity:1"
       d="m 153.79864,68.764368 5.22179,3.76881 12.81714,-1.884405 9.49417,-4.239911 19.46306,-5.653215 2.84825,-17.430745 c 0,0 0.94942,-23.55506 -12.81713,-27.794972 -13.76656,-4.23991 -24.68485,-8.4798213 -35.60315,-0.4711 -10.9183,8.00872 -10.9183,14.604137 -11.39301,17.901846 -0.47471,3.297708 -0.94942,7.537619 -0.94942,7.537619 l -0.94942,3.297709 12.34243,3.768809 c 0,0 -0.47471,10.364227 -0.47471,13.661935 0,3.297709 0,7.53762 0,7.53762 z"
       id="path5657" />
    <path
       style="opacity:0.34000017;fill:#f7ba82;fill-opacity:1;fill-rule:evenodd;stroke:#000000;stroke-width:0;stroke-linecap:butt;stroke-linejoin:miter;stroke-miterlimit:4;stroke-dasharray:none;stroke-opacity:1"
       d="m 143.83674,30.482521 c 0,0 1.89883,-11.393008 6.64592,-12.817134 4.74709,-1.424127 8.54475,-4.272379 11.39301,-4.747087 2.84825,-0.474709 13.76655,-2.848253 17.08951,-1.424126 3.32296,1.424126 14.24126,6.645921 16.14009,9.494173 1.89884,2.848252 7.12064,6.645922 7.12064,9.494174 0,2.848252 -4.74709,6.645922 -7.59534,5.221796 -2.84826,-1.424126 -10.9183,-2.848252 -16.1401,-4.272379 -5.22179,-1.424126 -12.34242,-1.424126 -13.76655,0.474709 -1.42413,1.898835 0.47471,-0.949417 -7.12063,0.949418 -7.59534,1.898834 -9.01947,4.747086 -10.44359,2.373543 -1.42413,-2.373543 -3.32296,-4.747087 -3.32296,-4.747087 z"
       id="path5748" />
    <path
       style="opacity:0.43000004;fill:#753f15;fill-opacity:1;fill-rule:evenodd;stroke:#000000;stroke-width:0;stroke-linecap:butt;stroke-linejoin:miter;stroke-miterlimit:4;stroke-dasharray:none;stroke-opacity:1"
       d="m 154.28032,66.933925 13.29185,4.272378 33.70431,-11.393009 5.2218,-17.089512 -9.96888,5.221795 -13.76656,-0.474708 -6.17121,9.019465 -11.86772,3.32296 -10.44359,1.424126 z"
       id="path5750" />
  </g>
  <g
     id="layer11"
     transform="translate(-108.70827,-10.540841)">
    <path
       style="fill:#c06c1c;fill-opacity:1;fill-rule:evenodd;stroke:#000000;stroke-width:0;stroke-linecap:butt;stroke-linejoin:miter;stroke-miterlimit:4;stroke-dasharray:none;stroke-opacity:1"
       d="m 168.04688,54.11679 4.74708,-1.424126 2.37355,3.322961 3.79766,0.474709 -0.4747,-4.272379 -5.2218,-4.747086 -6.17121,0.949417 -2.84825,2.848252 z"
       id="path5742" />
    <path
       style="fill:#591708;fill-opacity:1;fill-rule:evenodd;stroke:#000000;stroke-width:0;stroke-linecap:butt;stroke-linejoin:miter;stroke-miterlimit:4;stroke-dasharray:none;stroke-opacity:1"
       d="m 166.14804,61.712129 7.12063,3.322961 4.27238,-4.272378 0.94942,-3.79767 -1.89884,-0.949417 -5.6965,3.797669 -5.69651,-0.474708 z"
       id="path5744" />
  </g>
  <g
     id="layer8"
     style="display:inline"
     transform="translate(-108.70827,-10.540841)">
    <path
       style="fill:#9b9487;fill-opacity:1;fill-rule:evenodd;stroke:#000000;stroke-width:0;stroke-linecap:butt;stroke-linejoin:miter;stroke-miterlimit:4;stroke-dasharray:none;stroke-opacity:1"
       d="m 180.3893,68.832759 12.34243,-12.817134 -5.2218,-0.474709 -12.81713,12.817135 z"
       id="path5688" />
    <path
       style="fill:#e3e5ea;fill-opacity:1;fill-rule:evenodd;stroke:#000000;stroke-width:0;stroke-linecap:butt;stroke-linejoin:miter;stroke-miterlimit:4;stroke-dasharray:none;stroke-opacity:1"
       d="m 151.43207,80.700477 3.32296,-2.848253 0.47471,-22.311308 c 0,0 8.07005,-12.342426 10.9183,-14.715969 2.84825,-2.373543 0.47471,-13.766552 0.47471,-13.766552 l -4.74709,0.474709 -1.42412,10.9183 -4.27238,10.918299 c 0,0 -7.59534,19.937765 -4.74709,24.684852 2.84825,4.747087 2.84825,5.696504 2.84825,5.696504 z"
       id="path5690" />
    <path
       style="fill:#a29c83;fill-opacity:1;fill-rule:evenodd;stroke:#000000;stroke-width:0;stroke-linecap:butt;stroke-linejoin:miter;stroke-miterlimit:4;stroke-dasharray:none;stroke-opacity:1"
       d="m 148.10911,49.844412 0,-4.747087 -9.49417,-3.322961 -1.42413,4.747087 -1.89883,-1.424126 1.89883,-4.747087 14.24126,2.373544 1.89884,7.595339 z"
       id="path5694" />
    <path
       style="fill:#e2dfcf;fill-opacity:1;fill-rule:evenodd;stroke:#000000;stroke-width:0;stroke-linecap:butt;stroke-linejoin:miter;stroke-miterlimit:4;stroke-dasharray:none;stroke-opacity:1"
       d="m 156.17916,43.673199 -3.32296,-2.373543 -9.49418,-1.898835 -6.17121,-0.949417 5.2218,-8.070048 3.79767,1.424126 -1.89884,3.797669 16.1401,7.120631 z"
       id="path5696" />
    <path
       style="fill:#a69c91;fill-opacity:1;fill-rule:evenodd;stroke:#000000;stroke-width:0;stroke-linecap:butt;stroke-linejoin:miter;stroke-miterlimit:4;stroke-dasharray:none;stroke-opacity:1"
       d="m 165.43598,55.77827 -1.89884,-2.373543 2.37355,-1.66148 3.56031,4.747087 -6.40857,4.747086 -5.45915,1.424126 -6.64592,-1.186771 -0.23735,6.408567 -3.79767,5.696504 -11.86772,2.848252 -4.74709,-7.595339 0.94942,-14.953323 13.5292,-1.661481 -0.23735,2.136189 -10.4436,1.898835 0,4.272378 1.66148,12.342426 8.07005,-0.474708 4.27238,-4.509733 0.71206,-6.883276 4.03503,-1.186772 8.54475,-0.474708 z"
       id="path5700" />
    <path
       style="fill:#b6ac9f;fill-opacity:1;fill-rule:evenodd;stroke:#000000;stroke-width:0;stroke-linecap:butt;stroke-linejoin:miter;stroke-miterlimit:4;stroke-dasharray:none;stroke-opacity:1"
       d="m 135.05462,59.57594 10.44359,-1.424126 -1.18677,-2.610898 -9.49417,1.186772 z"
       id="path5702" />
    <path
       style="fill:#d0bf0d;fill-opacity:1;fill-rule:evenodd;stroke:#000000;stroke-width:0;stroke-linecap:butt;stroke-linejoin:miter;stroke-miterlimit:4;stroke-dasharray:none;stroke-opacity:1"
       d="m 146.21028,56.965042 6.88327,-2.610898 4.27238,4.747087 4.03502,-0.712063 2.13619,-3.560315 c 0,0 -0.47471,-3.797669 -4.74708,-3.797669 -4.27238,0 -13.76656,0.949417 -13.76656,0.949417 l -1.18677,3.560315 3.32296,1.898835 z"
       id="path5704" />
  </g>
  <g
     id="layer4"
     transform="translate(-108.70827,-10.540841)">
    <path
       style="fill:#ad8f68;fill-opacity:1;fill-rule:evenodd;stroke:#000000;stroke-width:0;stroke-linecap:butt;stroke-linejoin:miter;stroke-miterlimit:4;stroke-dasharray:none;stroke-opacity:1"
       d="m 143.83673,196.5294 9.49418,-7.59534 11.86771,-19.93777 3.79767,-12.34242 -2.84825,1.42412 c 0,0 -6.64592,5.2218 -8.54476,9.49418 -1.89883,4.27237 -13.76655,28.95723 -13.76655,28.95723 z"
       id="path5644" />
    <path
       style="fill:none;fill-rule:evenodd;stroke:#000000;stroke-width:0;stroke-linecap:butt;stroke-linejoin:miter;stroke-miterlimit:4;stroke-dasharray:none;stroke-opacity:1"
       d="m 138.14023,194.63056 17.56422,16.61481 -11.39301,8.54475 -15.19068,-12.34242 z"
       id="path5646" />
  </g>
  <g
     id="layer3"
     style="display:inline"
     transform="translate(-108.70827,-10.540841)">
    <path
       style="fill:#7e6342;fill-opacity:1;fill-rule:evenodd;stroke:#000000;stroke-width:0;stroke-linecap:butt;stroke-linejoin:miter;stroke-miterlimit:4;stroke-dasharray:none;stroke-opacity:1"
       d="m 152.8562,208.87182 -8.07005,-10.44359 12.81713,-18.03893 21.36189,-12.34243 -0.4747,-19.46305 c 0,0 -1.89884,-6.17121 0.4747,-10.9183 2.37355,-4.74709 1.42413,-11.86772 1.42413,-11.86772 0,0 -6.17121,0 -11.39301,4.74709 -5.22179,4.74709 -3.79767,12.81713 -4.27238,15.66539 -0.4747,2.84825 -3.79767,16.6148 -3.79767,16.6148 0,0 -3.79766,-24.21014 -0.4747,-29.90665 3.32296,-5.6965 1.89883,-12.81713 1.89883,-12.81713 l 4.74709,-5.2218 c 0,0 21.36189,11.86772 26.58368,13.29185 5.2218,1.42412 -3.79767,35.60315 -6.17121,37.97669 -2.37354,2.37354 -7.59534,8.54476 -7.59534,11.39301 0,2.84825 -27.05839,31.33077 -27.05839,31.33077 z"
       id="path5641" />
  </g>
  <g
     id="layer5"
     transform="translate(-108.70827,-10.540841)">
    <path
       style="fill:#eaf0f3;fill-opacity:1;fill-rule:evenodd;stroke:#000000;stroke-width:0;stroke-linecap:butt;stroke-linejoin:miter;stroke-miterlimit:4;stroke-dasharray:none;stroke-opacity:1"
       d="m 138.14023,194.63056 18.03893,16.1401 -11.86772,7.12063 -14.71597,-12.81714 z"
       id="path5649" />
    <path
       style="fill:#8b9b98;fill-opacity:0.75686275;fill-rule:evenodd;stroke:#000000;stroke-width:0;stroke-linecap:butt;stroke-linejoin:miter;stroke-miterlimit:4;stroke-dasharray:none;stroke-opacity:1"
       d="m 112.98067,225.48663 16.14009,-18.98835 14.71597,10.44359 0,7.59534 z"
       id="path5651" />
    <path
       style="fill:#2c3138;fill-opacity:1;fill-rule:evenodd;stroke:#000000;stroke-width:0;stroke-linecap:butt;stroke-linejoin:miter;stroke-miterlimit:4;stroke-dasharray:none;stroke-opacity:1"
       d="m 124.84838,212.19478 12.34243,9.49418 0.47471,1.89883 -9.49417,0.94942 -5.2218,-3.79767 -3.32296,-3.32296 z"
       id="path5653" />
    <path
       style="fill:#2c3138;fill-opacity:1;fill-rule:evenodd;stroke:#000000;stroke-width:0;stroke-linecap:butt;stroke-linejoin:miter;stroke-miterlimit:4;stroke-dasharray:none;stroke-opacity:1"
       d="m 127.22193,208.39711 1.89883,-2.37354 17.08952,12.34243 0,6.64592 -7.59534,-0.94942 0.94941,-5.6965 z"
       id="path5655" />
  </g>
  <g
     id="layer9"
     transform="translate(-108.70827,-10.540841)">
    <ellipse
       style="opacity:0.98999999;fill:#481d00;fill-opacity:1;fill-rule:nonzero;stroke:#ff00ff;stroke-width:0;stroke-miterlimit:4;stroke-dasharray:none"
       id="path5707"
       cx="170.77644"
       cy="56.1343"
       rx="3.6789923"
       ry="3.441638" />
  </g>
  <path
     style="fill:#1d1d17;fill-opacity:1;fill-rule:evenodd;stroke:#000000;stroke-width:0;stroke-linecap:butt;stroke-linejoin:miter;stroke-miterlimit:4;stroke-dasharray:none;stroke-opacity:1"
     d="m 69.7822,59.992959 13.76655,4.944882 8.07005,-5.933858 5.22179,-0.494489 -9.49417,-5.43937 -10.44359,0.988976 -8.07005,4.450394 z"
     id="path5752" />
</svg>
