<?xml version="1.0" encoding="UTF-8" standalone="no"?>
<!-- Created with Inkscape (http://www.inkscape.org/) -->

<svg
   xmlns:dc="http://purl.org/dc/elements/1.1/"
   xmlns:cc="http://creativecommons.org/ns#"
   xmlns:rdf="http://www.w3.org/1999/02/22-rdf-syntax-ns#"
   xmlns:svg="http://www.w3.org/2000/svg"
   xmlns="http://www.w3.org/2000/svg"
   xmlns:sodipodi="http://sodipodi.sourceforge.net/DTD/sodipodi-0.dtd"
   xmlns:inkscape="http://www.inkscape.org/namespaces/inkscape"
   id="svg2"
   version="1.1"
   inkscape:version="0.91 r13725"
   width="150"
   height="215.88976"
   viewBox="0 0 150 215.88976"
   sodipodi:docname="coach.svg">
  <metadata
     id="metadata8">
    <rdf:RDF>
      <cc:Work
         rdf:about="">
        <dc:format>image/svg+xml</dc:format>
        <dc:type
           rdf:resource="http://purl.org/dc/dcmitype/StillImage" />
        <dc:title></dc:title>
      </cc:Work>
    </rdf:RDF>
  </metadata>
  <defs
     id="defs6" />
  <sodipodi:namedview
     pagecolor="#ffffff"
     bordercolor="#666666"
     borderopacity="1"
     objecttolerance="10"
     gridtolerance="10"
     guidetolerance="10"
     inkscape:pageopacity="0"
     inkscape:pageshadow="2"
     inkscape:window-width="1301"
     inkscape:window-height="744"
     id="namedview4"
     showgrid="false"
     inkscape:zoom="1.9155986"
     inkscape:cx="-41.803728"
     inkscape:cy="135.22981"
     inkscape:window-x="65"
     inkscape:window-y="24"
     inkscape:window-maximized="1"
     inkscape:current-layer="layer5"
     fit-margin-top="0"
     fit-margin-left="0"
     fit-margin-right="0"
     fit-margin-bottom="0" />
  <g
     inkscape:groupmode="layer"
     id="layer1"
     inkscape:label="Layer 1"
     style="display:inline"
     transform="translate(-0.01747904,-3.3740412)">
    <path
       style="fill:#cf7020;fill-opacity:1;fill-rule:evenodd;stroke:#000000;stroke-width:0;stroke-linecap:butt;stroke-linejoin:miter;stroke-miterlimit:4;stroke-dasharray:none;stroke-opacity:1"
       d="m 84.270592,216.21267 5.03504,-10.0701 7.04907,-41.62304 -0.67134,-13.76246 -2.34969,-10.74143 -0.33567,-11.41277 -0.67134,-10.40577 2.34969,-5.37071 1.67835,-6.7134 -1.00701,-2.34968 4.699378,-6.713396 6.04205,-1.34267 5.03505,-1.67835 4.02804,-1.67835 1.00701,-3.3567 -1.34268,-5.37071 -0.33567,-2.34969 -3.02103,-1.34268 -0.33567,-2.01402 4.69938,-4.36371 -0.67134,-6.37772 2.01402,-2.34969 0,-1.34268 -1.00701,-2.01402 -4.36371,-5.03504 -0.33567,-4.02804 -3.69237,-5.37072 -4.02803,-6.71339 1.34268,-0.33567 4.3637,4.69938 c 0,0 1.00701,-6.37773 -3.02103,-9.06309 -4.02803,-2.68535 -4.69937,-6.37772 -12.419778,-5.70638 -7.7204,0.67134 -18.7975,2.68536 -18.7975,2.68536 0,0 2.014007,1.678343 -5.370719,4.3637 -7.384734,2.68536 11.975903,23.840072 -7.384734,16.783485 -8.278211,-3.017252 1.007009,8.72742 1.007009,8.72742 6.214163,-2.330311 10.071258,5.705942 3.356697,11.077097 -2.113308,1.690491 -6.042055,6.377728 -6.042055,6.377728 l -5.370716,6.71339 -5.706385,4.69938 -10.070092,9.734416 c 0,0 -16.783487,19.80451 -24.168221,42.96572 -7.3847353,23.16122 -6.7133963,33.90265 -6.7133963,33.90265 l -6.042054,3.69236 -2.01401895,3.02103 1.00700895,8.05607 5.706386,5.03505 -3.021028,5.37072 1.342679,3.02102 -5.70638495,9.73443 z"
       id="path4138-3"
       inkscape:connector-curvature="0"
       sodipodi:nodetypes="ccccccccccccccccccccccccccccccsscsscsccccsccccccccc" />
    <path
       style="opacity:0.98999999;fill:#ec933b;fill-opacity:1;stroke:#ff00ff;stroke-width:0;stroke-miterlimit:4;stroke-dasharray:none"
       d="m 30.783736,207.53536 -10.573597,-3.27845 -6.797057,-4.10695 c -3.7383816,-2.25882 -6.9240928,-4.02843 -7.0793585,-3.93247 -0.294665,0.18211 -4.0617628,-2.84922 -4.4452813,-3.57705 -0.12105,-0.22973 -0.4101123,-2.1086 -0.6423605,-4.17527 L 0.82381214,184.7076 1.7537719,183.23765 c 0.6852536,-1.08315 1.7428326,-1.97028 4.019129,-3.37134 l 3.0891692,-1.90139 0.2122531,-3.78035 c 0.370965,-6.6071 1.7635568,-13.67343 4.8133518,-24.42404 4.59314,-16.19095 11.797789,-30.28547 22.992152,-44.97975 2.973604,-3.9033 10.278761,-11.188206 15.964815,-15.920561 2.332905,-1.941617 4.004389,-3.827275 8.739232,-9.859037 0.374309,-0.476836 0.583058,-0.381159 1.846184,0.846168 l 1.424156,1.383793 1.510513,-0.772471 c 0.830783,-0.424859 2.11472,-0.868927 2.853193,-0.986818 1.328614,-0.212102 1.420041,-0.15441 8.727413,5.507169 6.925682,5.365853 9.524186,7.704795 9.553983,8.599641 0.0069,0.208168 0.264944,0.585796 0.573361,0.839174 0.308417,0.253379 1.997963,2.273305 3.754546,4.488725 1.756584,2.215417 3.3178,4.078697 3.469372,4.140627 0.151568,0.0619 0.20012,0.23469 0.107884,0.38392 -0.09223,0.14924 0.06475,0.82767 0.348848,1.50761 0.478709,1.14572 0.463718,1.44952 -0.204684,4.14762 -0.396678,1.60124 -1.313597,4.36573 -2.037596,6.14331 l -1.316366,3.23196 0.327439,4.65628 c 0.180094,2.56095 0.415402,6.28355 0.522906,8.27245 l 0.195464,3.61617 -3.512451,-2.54725 c -3.090135,-2.24099 -11.920539,-7.34451 -12.208919,-7.05613 -0.05896,0.059 0.351564,5.61243 0.912286,12.34104 l 1.019493,12.23384 -0.685568,23.9643 c -0.377065,13.18036 -0.717696,23.99641 -0.756956,24.03567 -0.03926,0.0393 -2.37304,-0.16927 -5.186178,-0.46342 -4.471614,-0.46755 -5.114791,-0.60964 -5.114791,-1.12994 0,-0.47679 -0.216916,-0.56688 -1.090926,-0.45305 -0.60001,0.0781 -6.151148,0.45542 -12.335863,0.83839 -6.184715,0.38297 -11.557327,0.75867 -11.939141,0.8349 -0.679648,0.13568 -0.691057,0.27603 -0.543993,6.69307 0.08405,3.6674 0.02017,6.54599 -0.144969,6.53519 -0.16235,-0.0106 -5.0533,-1.49461 -10.868778,-3.29776 z"
       id="path4204"
       inkscape:connector-curvature="0" />
  </g>
  <g
     inkscape:groupmode="layer"
     id="layer10"
     inkscape:label="shirtcollar"
     transform="translate(-0.01747904,-3.3740412)">
    <path
       style="fill:#bc580f;fill-opacity:1;fill-rule:evenodd;stroke:#000000;stroke-width:0;stroke-linecap:butt;stroke-linejoin:miter;stroke-miterlimit:4;stroke-dasharray:none;stroke-opacity:1"
       d="m 58.406533,86.77358 18.797505,10.070092 13.42679,21.147188 7.049064,-9.06308 -5.035046,-7.38473 -19.133175,-20.140186 -9.398752,-2.014018 -3.021028,-0.67134 -4.699376,4.363707 z"
       id="path4207"
       inkscape:connector-curvature="0" />
  </g>
  <g
     inkscape:groupmode="layer"
     id="layer9"
     inkscape:label="shirtbackshadow"
     transform="translate(-0.01747904,-3.3740412)">
    <path
       style="fill:#c56e24;fill-opacity:1;fill-rule:evenodd;stroke:#000000;stroke-width:0;stroke-linecap:butt;stroke-linejoin:miter;stroke-miterlimit:4;stroke-dasharray:none;stroke-opacity:1"
       d="m 41.287377,209.96437 1.007009,-58.40653 -0.33567,-23.83255 -9.734422,-1.34268 4.028037,-10.74143 5.370716,-9.06309 -4.028037,0.33567 -24.50389,53.37149 -2.014019,27.18925 -1.007009,9.06308 7.384734,6.04206 z"
       id="path4200"
       inkscape:connector-curvature="0" />
  </g>
  <g
     inkscape:groupmode="layer"
     id="layer8"
     inkscape:label="shirtshadow"
     transform="translate(-0.01747904,-3.3740412)">
    <path
       style="fill:#b15305;fill-opacity:1;fill-rule:evenodd;stroke:#000000;stroke-width:0;stroke-linecap:butt;stroke-linejoin:miter;stroke-miterlimit:4;stroke-dasharray:none;stroke-opacity:1"
       d="m 64.784258,213.99241 19.468845,2.01402 c 0,0 5.370715,-4.36371 5.706385,-6.04206 0.33567,-1.67835 7.049064,-35.58099 7.049064,-35.58099 l -2.014018,-37.93068 -8.727413,-6.37772 -8.727413,-4.69938 2.014018,24.50389 -1.342679,48.33644 -12.755449,-1.34268 z"
       id="path4197"
       inkscape:connector-curvature="0" />
  </g>
  <g
     inkscape:groupmode="layer"
     id="layer6"
     inkscape:label="ear"
     style="display:inline"
     transform="translate(-0.01747904,-3.3740412)">
    <path
       style="fill:#b0947a;fill-opacity:1;fill-rule:evenodd;stroke:#000000;stroke-width:0;stroke-linecap:butt;stroke-linejoin:miter;stroke-miterlimit:4;stroke-dasharray:none;stroke-opacity:1"
       d="m 77.875378,70.339781 5.706385,6.713395 6.377725,0 2.014018,-4.699376 -5.035046,-3.356698 -1.678348,-2.685357 -1.678349,-2.014019 z"
       id="path4185"
       inkscape:connector-curvature="0" />
  </g>
  <g
     inkscape:groupmode="layer"
     id="layer7"
     inkscape:label="innerear"
     transform="translate(-0.01747904,-3.3740412)">
    <path
       style="fill:#5c3d16;fill-opacity:1;fill-rule:evenodd;stroke:#000000;stroke-width:0;stroke-linecap:butt;stroke-linejoin:miter;stroke-miterlimit:4;stroke-dasharray:none;stroke-opacity:1"
       d="m 86.93846,73.34679 c -3.021028,1.678349 -1.342679,0.67134 -1.342679,0.67134 l -4.028037,-2.685358 3.692367,-3.692367 z"
       id="path4188"
       inkscape:connector-curvature="0" />
  </g>
  <g
     inkscape:groupmode="layer"
     id="layer3"
     inkscape:label="Layer 3"
     style="display:inline"
     transform="translate(-0.01747904,-3.3740412)">
    <path
       style="fill:#9fa196;fill-opacity:1;fill-rule:evenodd;stroke:#000000;stroke-width:0;stroke-linecap:butt;stroke-linejoin:miter;stroke-miterlimit:4;stroke-dasharray:none;stroke-opacity:1"
       d="m 62.0989,78.381837 -3.692367,-18.461836 -2.349688,-12.41978 10.741432,-9.398752 10.070092,-5.370716 17.790495,-2.014018 2.349688,-1.342679 c 0,0 6.713398,1.007009 9.398748,5.370715 2.68536,4.363707 3.69237,7.049065 3.69237,9.063083 0,2.014019 -6.04205,0.33567 -6.04205,0.33567 l -4.699379,2.349688 -2.349689,0.33567 -6.713394,22.825541 -7.049065,-3.021027 -4.363706,4.028037 -1.678349,4.028036 -12.41978,6.377725 z"
       id="path4162"
       inkscape:connector-curvature="0" />
  </g>
  <g
     inkscape:groupmode="layer"
     id="layer4"
     inkscape:label="Layer 4"
     style="display:inline"
     transform="translate(-0.01747904,-3.3740412)">
    <path
       style="fill:#333e3f;fill-opacity:1;fill-rule:evenodd;stroke:#000000;stroke-width:1px;stroke-linecap:butt;stroke-linejoin:miter;stroke-opacity:1"
       d="m 1.3426789,216.00643 2.6853579,-9.39876 2.6853578,-9.73442 13.4267894,8.05608 21.818532,6.71339 41.623047,4.36371 -3.692367,1.00701 z"
       id="path4165"
       inkscape:connector-curvature="0" />
  </g>
  <g
     inkscape:groupmode="layer"
     id="layer2"
     inkscape:label="Layer 2"
     style="display:inline"
     transform="translate(-0.01747904,-3.3740412)">
    <path
       style="fill:#b79776;fill-opacity:1;fill-rule:evenodd;stroke:#000000;stroke-width:0;stroke-linecap:butt;stroke-linejoin:miter;stroke-miterlimit:4;stroke-dasharray:none;stroke-opacity:1"
       d="m 60.756221,76.703488 10.070092,2.685358 14.769469,11.412771 9.734422,12.419783 8.056076,-7.384737 7.04906,-1.678349 5.70639,-1.007009 0.33567,-5.370716 -1.00701,-1.678349 0.67134,-4.028036 -6.37773,-2.014019 3.3567,-3.021027 5.37072,-3.021028 -2.34969,-7.384734 3.02102,-2.014018 -5.70638,-8.391744 -1.67835,-4.028037 -4.69938,-7.720403 -3.69236,-2.014019 -2.34969,4.028037 -4.363707,-1.007009 -5.035046,11.748441 0.671339,7.720403 -3.021027,4.028037 -5.035046,-3.692367 c 0,0 -4.028037,0 -5.035046,3.021028 -1.00701,3.021027 -1.342679,5.370715 -1.342679,5.370715 l -2.349688,1.342679 -6.377725,4.363707 -5.706386,0.335669 z"
       id="path4157"
       inkscape:connector-curvature="0"
       sodipodi:nodetypes="cccccccccccccccccccccccccsccccc" />
    <path
       style="fill:#b79776;fill-opacity:1;fill-rule:evenodd;stroke:#000000;stroke-width:0;stroke-linecap:butt;stroke-linejoin:miter;stroke-miterlimit:4;stroke-dasharray:none;stroke-opacity:1"
       d="m 42.630056,216.00643 -0.33567,-17.7905 24.83956,-1.67835 -2.349688,20.14019 z"
       id="path4159"
       inkscape:connector-curvature="0" />
    <path
       style="display:inline;fill:#cbb59e;fill-opacity:1;fill-rule:evenodd;stroke:#000000;stroke-width:0;stroke-linecap:butt;stroke-linejoin:miter;stroke-miterlimit:4;stroke-dasharray:none;stroke-opacity:1"
       d="m 77.539708,68.311746 5.70639,6.7134 6.37772,0 2.01402,-4.69938 -5.03505,-3.3567 -1.67835,-2.68536 -1.67834,-2.01402 z"
       id="path4185-6"
       inkscape:connector-curvature="0" />
    <path
       style="fill:#5c3d16;fill-opacity:1;fill-rule:evenodd;stroke:#000000;stroke-width:0;stroke-linecap:butt;stroke-linejoin:miter;stroke-miterlimit:4;stroke-dasharray:none;stroke-opacity:1"
       d="m 86.602788,71.318756 c -3.02103,1.67835 -1.34268,0.67134 -1.34268,0.67134 l -4.02803,-2.68536 3.69236,-3.69237 z"
       id="path4188-7"
       inkscape:connector-curvature="0" />
    <path
       style="fill:#3a2a10;fill-opacity:1;fill-rule:evenodd;stroke:#000000;stroke-width:0;stroke-linecap:butt;stroke-linejoin:miter;stroke-miterlimit:4;stroke-dasharray:none;stroke-opacity:1"
       d="m 42.080933,198.96159 9.96653,1.47652 10.33567,18.82568 2.58392,-12.91958 13.28871,-6.64436 -4.7987,-1.47652 -16.61089,-1.10739 -15.13437,-0.36914 z"
       id="path4306"
       inkscape:connector-curvature="0" />
    <path
       style="fill:#7f6250;fill-opacity:1;fill-rule:evenodd;stroke:#000000;stroke-width:0;stroke-linecap:butt;stroke-linejoin:miter;stroke-miterlimit:4;stroke-dasharray:none;stroke-opacity:1"
       d="m 112.21581,66.074444 -1.10739,-6.644357 0.73826,-1.845655 4.06044,4.060441 -0.36913,2.953047 z"
       id="path4308"
       inkscape:connector-curvature="0" />
  </g>
  <g
     inkscape:groupmode="layer"
     id="layer5"
     inkscape:label="Layer 5"
     transform="translate(-0.01747904,-3.3740412)">
    <path
       style="fill:#7d6341;fill-opacity:1;fill-rule:evenodd;stroke:#000000;stroke-width:0;stroke-linecap:butt;stroke-linejoin:miter;stroke-miterlimit:4;stroke-dasharray:none;stroke-opacity:1"
       d="m 104.39329,59.081103 6.04205,-0.540831 1.34268,-0.540833 1.00701,-3.244992 -5.03505,-0.540831 -1.34268,0.811248 z"
       id="path4168"
       inkscape:connector-curvature="0"
       sodipodi:nodetypes="ccccccc" />
    <path
       style="fill:#3a2b15;fill-opacity:1;fill-rule:evenodd;stroke:#000000;stroke-width:0;stroke-linecap:butt;stroke-linejoin:miter;stroke-miterlimit:4;stroke-dasharray:none;stroke-opacity:1"
       d="m 117.42856,64.973849 -3.3567,3.356697 -1.34268,-0.33567 0,-1.678348 z"
       id="path4170"
       inkscape:connector-curvature="0" />
    <path
       style="fill:#413223;fill-opacity:1;fill-rule:evenodd;stroke:#000000;stroke-width:0;stroke-linecap:butt;stroke-linejoin:miter;stroke-miterlimit:4;stroke-dasharray:none;stroke-opacity:1"
       d="m 112.59812,81.02959 -0.6442,-2.368511 5.83242,-4.585357 -8.1711,1.248036 -0.85825,2.722409 2.90877,4.326102 z"
       id="path4172"
       inkscape:connector-curvature="0"
       sodipodi:nodetypes="ccccccc" />
    <path
       style="fill:#031105;fill-opacity:1;fill-rule:evenodd;stroke:#000000;stroke-width:0;stroke-linecap:butt;stroke-linejoin:miter;stroke-miterlimit:4;stroke-dasharray:none;stroke-opacity:1"
       d="m 119.16275,92.144296 0.67134,2.685357 4.02804,4.699377 c 0,0 9.73442,-2.685358 6.7134,-4.699377 -3.02103,-2.014018 -6.37773,-3.356697 -6.37773,-3.356697 l -3.69237,-0.33567 -5.03504,-1.007009 0.67134,1.342679 z"
       id="path4174"
       inkscape:connector-curvature="0" />
    <path
       style="fill:#2f2936;fill-opacity:1;fill-rule:evenodd;stroke:#000000;stroke-width:1px;stroke-linecap:butt;stroke-linejoin:miter;stroke-opacity:1"
       d="m 74.85435,64.955047 16.112147,-2.349688 -3.692367,-7.384734 -1.678348,0.33567 -1.00701,-4.699376 4.363707,-3.692368 2.349688,-16.447816 -10.741431,1.342679 -8.056074,2.014018 -0.33567,4.028037 1.342679,8.727413 1.678349,1.678348 1.342679,9.734423 -2.685358,1.007009 z"
       id="path4176"
       inkscape:connector-curvature="0" />
    <path
       style="opacity:0.98999999;fill:#000000;fill-opacity:1;stroke:#ff00ff;stroke-width:0;stroke-miterlimit:4;stroke-dasharray:none"
       d="m 109.85351,79.03195 c -0.22112,-0.576212 0.81126,-1.776084 1.52815,-1.776084 0.42274,0 0.39251,0.07779 -0.50061,1.288343 -0.69077,0.93629 -0.83005,1.002402 -1.02754,0.487741 z"
       id="path4178"
       inkscape:connector-curvature="0" />
    <path
       style="opacity:0.98999999;fill:#000000;fill-opacity:0;stroke:#ff00ff;stroke-width:0;stroke-miterlimit:4;stroke-dasharray:none"
       d="m 113.77792,67.773196 c 0.0768,-0.230773 0.42448,-0.474772 0.77254,-0.542221 0.54752,-0.106098 0.57217,-0.04952 0.18284,0.419587 -0.53244,0.641551 -1.15476,0.721432 -0.95538,0.122634 z"
       id="path4182"
       inkscape:connector-curvature="0" />
    <path
       style="fill:#3a2a15;fill-opacity:1;fill-rule:evenodd;stroke:#000000;stroke-width:0;stroke-linecap:butt;stroke-linejoin:miter;stroke-miterlimit:4;stroke-dasharray:none;stroke-opacity:1"
       d="m 112.44662,58.389166 -1.78016,-1.16039 -2.07685,-1.160402 -0.59339,-2.901005 4.74709,1.740603 z"
       id="path4245"
       inkscape:connector-curvature="0" />
    <path
       style="fill:#65513c;fill-opacity:1;fill-rule:evenodd;stroke:#000000;stroke-width:0;stroke-linecap:butt;stroke-linejoin:miter;stroke-miterlimit:4;stroke-dasharray:none;stroke-opacity:1"
       d="m 116.06627,83.07402 -0.68158,2.136189 -1.49948,-0.712063 -1.63579,-0.949417 -0.40895,-0.949417 0.27263,-2.136189 3.81686,1.424126 z"
       id="path4247"
       inkscape:connector-curvature="0" />
    <path
       style="fill:#654a2c;fill-opacity:1;fill-rule:evenodd;stroke:#000000;stroke-width:0;stroke-linecap:butt;stroke-linejoin:miter;stroke-miterlimit:4;stroke-dasharray:none;stroke-opacity:1"
       d="m 94.941737,103.48649 4.747087,-6.171209 12.342426,-3.085607 2.37354,0 0.23736,-3.32296 -4.03503,0.237354 -3.79767,-1.66148 -6.40856,-0.237355 -2.373546,0.949418 -4.509733,1.186771 -2.373543,4.035024 2.848252,7.357984 z"
       id="path4249"
       inkscape:connector-curvature="0" />
    <path
       style="fill:#7c5e38;fill-opacity:1;fill-rule:evenodd;stroke:#000000;stroke-width:0;stroke-linecap:butt;stroke-linejoin:miter;stroke-miterlimit:4;stroke-dasharray:none;stroke-opacity:1"
       d="m 79.276351,69.544822 2.848252,4.272378 5.45915,0.474709 0.949417,0.712063 -1.186771,5.933858 -3.79767,-4.509732 -3.797669,-1.186772"
       id="path4251"
       inkscape:connector-curvature="0" />
    <path
       style="fill:none;fill-rule:evenodd;stroke:#000000;stroke-width:0;stroke-linecap:butt;stroke-linejoin:miter;stroke-miterlimit:4;stroke-dasharray:none;stroke-opacity:1"
       d="M -68.83276,74.529264 Z"
       id="path4253"
       inkscape:connector-curvature="0" />
    <path
       style="fill:#654426;fill-opacity:1;fill-rule:evenodd;stroke:#000000;stroke-width:0;stroke-linecap:butt;stroke-linejoin:miter;stroke-miterlimit:4;stroke-dasharray:none;stroke-opacity:1"
       d="m 70.968949,83.311375 7.595339,3.797669 9.731528,7.832693 1.661481,-2.136189 0.237354,-4.272378 -3.560315,2.610898 -10.206237,-7.12063 -3.322961,-4.035024 1.186772,-2.373544 -4.509733,1.424126 -2.136189,0.712063 4.509733,4.747087 0.712063,0.237355 1.186772,-0.474709"
       id="path4257"
       inkscape:connector-curvature="0" />
    <path
       style="fill:#987550;fill-opacity:1;fill-rule:evenodd;stroke:#000000;stroke-width:0;stroke-linecap:butt;stroke-linejoin:miter;stroke-miterlimit:4;stroke-dasharray:none;stroke-opacity:1"
       d="m 111.08183,68.943525 -0.94941,8.433991 7.12063,-3.892611 -1.42413,-5.838917 z"
       id="path4259"
       inkscape:connector-curvature="0" />
    <path
       style="fill:#987550;fill-opacity:1;fill-rule:evenodd;stroke:#000000;stroke-width:0;stroke-linecap:butt;stroke-linejoin:miter;stroke-miterlimit:4;stroke-dasharray:none;stroke-opacity:1"
       d="m 100.63824,81.649894 2.84825,-0.474708 4.74709,-3.085607 1.18677,-5.45915 1.42413,-6.408567 -1.89884,3.085607 -3.0856,1.424126 -3.08561,6.171213 -2.6109,1.424126 -1.424123,1.424126 z"
       id="path4261"
       inkscape:connector-curvature="0" />
    <path
       style="display:inline;fill:#7a6a4f;fill-opacity:1;fill-rule:evenodd;stroke:#000000;stroke-width:0;stroke-linecap:butt;stroke-linejoin:miter;stroke-miterlimit:4;stroke-dasharray:none;stroke-opacity:1"
       d="m 96.972348,45.263059 4.509732,6.408568 -3.560314,4.509732 -1.898835,5.221796 0.237354,1.424126 2.373544,0 -2.136189,4.747087 -3.322961,2.136189 -2.136189,3.085606 -3.79767,-3.560315 -1.898835,-4.272378 0.237355,-1.898835 7.12063,0.712063 1.186772,-5.696504 0.474708,-5.45915 0,-5.933859 z"
       id="path4263"
       inkscape:connector-curvature="0" />
    <path
       style="fill:#c9cbc0;fill-opacity:1;fill-rule:evenodd;stroke:#000000;stroke-width:0;stroke-linecap:butt;stroke-linejoin:miter;stroke-miterlimit:4;stroke-dasharray:none;stroke-opacity:1"
       d="m 88.222301,53.523991 5.16783,5.906096 2.95305,-4.798703 -0.36913,-8.490012 5.167839,-1.845655 5.16783,-1.107393 -0.36913,-3.69131 4.7987,3.322179 -2.95305,-8.859143 -7.38262,-3.322179 -10.704799,0 0.36914,14.026977 -1.1074,4.798703 -2.58391,-1.107393 z"
       id="path4300"
       inkscape:connector-curvature="0" />
    <path
       style="fill:#dedde2;fill-opacity:1;fill-rule:evenodd;stroke:#000000;stroke-width:0;stroke-linecap:butt;stroke-linejoin:miter;stroke-miterlimit:4;stroke-dasharray:none;stroke-opacity:1"
       d="m 76.779241,56.477039 -0.73826,-6.644357 -4.42957,-3.69131 1.10739,-10.704798 -11.81219,7.382619 -1.47652,2.953048 7.01348,4.429571 7.75175,5.536965 1.84566,2.583917 z"
       id="path4302"
       inkscape:connector-curvature="0" />
    <path
       style="fill:#5f6052;fill-opacity:1;fill-rule:evenodd;stroke:#000000;stroke-width:0;stroke-linecap:butt;stroke-linejoin:miter;stroke-miterlimit:4;stroke-dasharray:none;stroke-opacity:1"
       d="m 69.273582,77.148373 6.029135,-4.798702 0,-8.490013 -1.722606,-7.75175 -8.182406,8.490012 -2.583922,-0.369131 -3.014562,-2.953047 0,8.859143 2.153258,5.536965 9.04371,4.06044 z"
       id="path4304"
       inkscape:connector-curvature="0" />
    <path
       style="display:inline;fill:#5d5036;fill-opacity:1;fill-rule:evenodd;stroke:#000000;stroke-width:0;stroke-linecap:butt;stroke-linejoin:miter;stroke-miterlimit:4;stroke-dasharray:none;stroke-opacity:1"
       d="m 108.84326,57.534921 1.56609,0.522026 0.78305,-1.392076 -3.13219,-0.696044 z"
       id="path4331"
       inkscape:connector-curvature="0"
       sodipodi:nodetypes="ccccc" />
    <path
       style="fill:#7f6f55;fill-opacity:1;fill-rule:evenodd;stroke:#000000;stroke-width:0;stroke-linecap:butt;stroke-linejoin:miter;stroke-miterlimit:4;stroke-dasharray:none;stroke-opacity:1"
       d="m 107.23255,62.567699 2.76848,-1.66109 -0.36913,-1.29196 -4.24501,0.18457 -0.5537,-1.29196 2.03023,-2.583916 -4.06045,-0.184566 -0.92282,4.060442 2.58391,1.10739 z"
       id="path4342"
       inkscape:connector-curvature="0" />
    <path
       style="opacity:0.68999999;fill:#cbb59e;fill-opacity:1;fill-rule:evenodd;stroke:#000000;stroke-width:0;stroke-linecap:butt;stroke-linejoin:miter;stroke-miterlimit:4;stroke-dasharray:none;stroke-opacity:1"
       d="m 115.88475,71.917198 -8.36719,2.889723 3.0426,-5.77943 6.08524,0 z"
       id="path4363"
       inkscape:connector-curvature="0" />
  </g>
  <path
     style="fill:#cbb59e;fill-opacity:1;fill-rule:evenodd;stroke:#000000;stroke-width:0;stroke-linecap:butt;stroke-linejoin:miter;stroke-miterlimit:4;stroke-dasharray:none;stroke-opacity:1"
     d="m 90.949018,92.462622 7.049065,-5.035046 -4.028037,-4.028037 -6.377725,7.049064 3.356697,3.021028 z"
     id="path4190"
     inkscape:connector-curvature="0" />
  <path
     style="fill:#cbb59e;fill-opacity:1;fill-rule:evenodd;stroke:#000000;stroke-width:0;stroke-linecap:butt;stroke-linejoin:miter;stroke-miterlimit:4;stroke-dasharray:none;stroke-opacity:1"
     d="m 97.369078,44.126181 6.069122,-4.028037 9.09926,9.659962 -6.54384,2.088478 -3.5137,4.699377 8.30512,1.678348 -4.15256,2.349688 2.55542,4.363707 -5.11085,4.699376 -2.55541,-1.342679 -0.63886,3.692367 -5.749695,1.678349 -2.874848,0.33567 0.638854,-6.377725 7.346839,-4.028037 -5.430272,-1.678349 4.471988,-8.727413 -0.319428,-2.349688 -3.513705,-5.370715 z"
     id="path4192"
     inkscape:connector-curvature="0"
     sodipodi:nodetypes="cccccccccccccccccccc" />
  <path
     style="fill:#bcb18a;fill-opacity:1;fill-rule:evenodd;stroke:#000000;stroke-width:0;stroke-linecap:butt;stroke-linejoin:miter;stroke-miterlimit:4;stroke-dasharray:none;stroke-opacity:1"
     d="m 112.47857,61.133628 -0.44423,-1.875668 -0.88848,-1.071811 7.55203,2.143622 z"
     id="path4194"
     inkscape:connector-curvature="0" />
  <path
     style="opacity:0.68999999;fill:#6e5849;fill-opacity:1;fill-rule:evenodd;stroke:#000000;stroke-width:0;stroke-linecap:butt;stroke-linejoin:miter;stroke-miterlimit:4;stroke-dasharray:none;stroke-opacity:1"
     d="m 113.00202,58.750002 -3.05387,8.086719 -0.67864,9.771453 -3.05388,-2.02168 2.03592,-8.08672 2.37524,-8.423666 z"
     id="path4310"
     inkscape:connector-curvature="0" />
</svg>
